<svg width="24" height="24" fill="none" xmlns="http://www.w3.org/2000/svg"><g clip-path="url('#clip0_1_183')"><path d="M12 2a4 4 0 0 1 4 4h2.035a2 2 0 0 1 1.999 1.929l.428 12A2 2 0 0 1 18.464 22H5.536a2 2 0 0 1-1.998-2.071l.428-12A2 2 0 0 1 5.965 6H8a4 4 0 0 1 4-4ZM8 8H5.965l-.429 12h12.928l-.429-12H16v1a1 1 0 0 1-1.993.117L14 9V8h-4v1a1 1 0 0 1-1.993.117L8 9V8Zm4-4a2 2 0 0 0-1.995 1.85L10 6h4a2 2 0 0 0-2-2Z" fill="#5C5C5E"/></g><defs><clipPath id="clip0_1_183"><path fill="#fff" d="M0 0h24v24H0z"/></clipPath></defs></svg>